<svg version="1.1" id="Layer_1" xmlns="http://www.w3.org/2000/svg" xmlns:xlink="http://www.w3.org/1999/xlink" x="0px" y="0px"
	 width="100%" viewBox="0 0 606 326" enable-background="new 0 0 606 326" xml:space="preserve">
<path fill="#FFFFFF" opacity="1.000000" stroke="none" 
	d="
M383.000000,327.000000 
	C255.333328,327.000000 128.166672,327.000000 1.000000,327.000000 
	C1.000000,218.333328 1.000000,109.666664 1.000000,1.000000 
	C203.000000,1.000000 405.000000,1.000000 607.000000,1.000000 
	C607.000000,109.666664 607.000000,218.333328 607.000000,327.000000 
	C532.500000,327.000000 458.000000,327.000000 383.000000,327.000000 
M546.734192,76.727547 
	C529.221558,66.181076 511.664001,55.708294 494.212982,45.060886 
	C483.526978,38.541016 472.776947,32.055428 460.073547,30.634211 
	C451.020050,29.621336 441.839325,29.788897 432.753296,28.995552 
	C430.235046,28.775677 427.236786,27.605385 425.515533,25.840494 
	C418.684143,18.836081 411.205505,12.791176 402.129730,9.103930 
	C377.593140,-0.864644 354.042145,0.642928 332.250214,16.390692 
	C322.598877,23.365156 313.510681,31.118992 304.570282,38.199554 
	C300.945984,35.646332 298.119751,33.643753 295.281281,31.658728 
	C291.946503,29.326607 288.153046,27.453571 285.336456,24.610720 
	C271.951050,11.100575 255.885849,3.737525 236.928421,3.101923 
	C215.266098,2.375631 196.999588,9.954014 182.283356,26.085934 
	C180.744247,27.773088 177.810394,28.825518 175.437592,28.999655 
	C166.992691,29.619402 158.394653,28.980537 150.077545,30.263515 
	C142.823654,31.382484 135.317307,33.418823 128.892685,36.860760 
	C112.371994,45.711601 96.567528,55.890453 80.143028,64.932213 
	C63.156689,74.283279 48.047756,85.996216 35.987782,100.984886 
	C10.127291,133.125473 0.051295,169.965424 7.168243,210.750900 
	C13.652375,247.909866 32.733360,277.673096 63.844154,298.997925 
	C93.762146,319.505127 126.971687,326.966187 163.007080,321.069702 
	C192.056198,316.316345 216.900986,303.270142 237.522644,282.563873 
	C251.275726,268.754333 261.548737,252.436478 268.210480,233.967361 
	C268.764252,232.432037 270.084473,230.655899 271.506104,230.028641 
	C292.078461,220.951859 312.877533,220.385315 333.984711,228.394241 
	C337.586121,229.760742 339.056366,231.990173 340.318085,235.297348 
	C348.982208,258.007324 362.550995,277.395020 381.546967,292.531677 
	C410.810242,315.849701 444.157135,325.957520 481.640930,322.088959 
	C510.957672,319.063263 536.764893,307.795471 558.166138,287.918457 
	C591.250671,257.190338 606.290894,218.999420 602.097473,173.620209 
	C600.049438,151.456100 592.676636,131.215302 580.668762,112.621117 
	C571.726501,98.773956 559.996399,87.493645 546.734192,76.727547 
z"/>
<path fill="#A0CFFA" opacity="1.000000" stroke="none" 
	d="
M546.943237,77.018372 
	C559.996399,87.493645 571.726501,98.773956 580.668762,112.621117 
	C592.676636,131.215302 600.049438,151.456100 602.097473,173.620209 
	C606.290894,218.999420 591.250671,257.190338 558.166138,287.918457 
	C536.764893,307.795471 510.957672,319.063263 481.640930,322.088959 
	C444.157135,325.957520 410.810242,315.849701 381.546967,292.531677 
	C362.550995,277.395020 348.982208,258.007324 340.318085,235.297348 
	C339.056366,231.990173 337.586121,229.760742 333.984711,228.394241 
	C312.877533,220.385315 292.078461,220.951859 271.506104,230.028641 
	C270.084473,230.655899 268.764252,232.432037 268.210480,233.967361 
	C261.548737,252.436478 251.275726,268.754333 237.522644,282.563873 
	C216.900986,303.270142 192.056198,316.316345 163.007080,321.069702 
	C126.971687,326.966187 93.762146,319.505127 63.844154,298.997925 
	C32.733360,277.673096 13.652375,247.909866 7.168243,210.750900 
	C0.051295,169.965424 10.127291,133.125473 35.987782,100.984886 
	C48.047756,85.996216 63.156689,74.283279 80.143028,64.932213 
	C96.567528,55.890453 112.371994,45.711601 128.892685,36.860760 
	C135.317307,33.418823 142.823654,31.382484 150.077545,30.263515 
	C158.394653,28.980537 166.992691,29.619402 175.437592,28.999655 
	C177.810394,28.825518 180.744247,27.773088 182.283356,26.085934 
	C196.999588,9.954014 215.266098,2.375631 236.928421,3.101923 
	C255.885849,3.737525 271.951050,11.100575 285.336456,24.610720 
	C288.153046,27.453571 291.946503,29.326607 295.281281,31.658728 
	C298.119751,33.643753 300.945984,35.646332 304.570282,38.199554 
	C313.510681,31.118992 322.598877,23.365156 332.250214,16.390692 
	C354.042145,0.642928 377.593140,-0.864644 402.129730,9.103930 
	C411.205505,12.791176 418.684143,18.836081 425.515533,25.840494 
	C427.236786,27.605385 430.235046,28.775677 432.753296,28.995552 
	C441.839325,29.788897 451.020050,29.621336 460.073547,30.634211 
	C472.776947,32.055428 483.526978,38.541016 494.212982,45.060886 
	C511.664001,55.708294 529.221558,66.181076 546.943237,77.018372 
M245.273102,82.067314 
	C241.297302,83.738594 237.321503,85.409874 233.515961,87.009583 
	C235.662766,89.385132 237.499710,91.417793 239.638962,93.785004 
	C241.847015,89.691505 243.922028,85.844635 246.287170,81.902229 
	C246.192154,81.935707 246.097122,81.969185 245.273102,82.067314 
M273.811829,221.025528 
	C283.959656,218.029205 294.226227,215.014847 304.882202,216.130005 
	C314.978607,217.186569 324.960266,219.339127 335.100281,221.291687 
	C335.191345,221.338394 335.282379,221.385117 335.373444,221.431839 
	C335.252289,221.285202 335.131134,221.138580 335.035309,220.140533 
	C333.749786,210.992935 332.464264,201.845337 331.109741,192.206985 
	C328.687683,192.991302 326.104340,194.267731 323.404266,194.602493 
	C318.988220,195.150009 317.421997,197.224976 317.920807,201.572571 
	C318.348785,205.302475 316.302643,207.081039 312.550201,207.012985 
	C309.054657,206.949600 305.557068,207.002014 302.060364,207.002106 
	C292.619446,207.002335 292.622925,207.001755 291.862579,197.431366 
	C291.839050,197.135101 291.573700,196.858063 291.371490,196.479141 
	C286.537170,195.100800 281.643829,193.705612 276.810242,192.327469 
	C275.504730,202.064880 274.237030,211.520004 272.672760,221.089737 
	C272.789734,221.069611 272.906708,221.049469 273.811829,221.025528 
M292.560791,169.087387 
	C306.979156,172.684784 320.131744,169.750641 332.113190,161.231216 
	C333.358307,160.345871 334.559998,158.750732 334.865051,157.293076 
	C337.684235,143.822174 342.732086,131.263168 349.702942,119.428108 
	C350.336823,118.351898 350.901733,116.874489 350.702026,115.721352 
	C346.981628,94.238960 330.093384,77.652016 307.417786,76.155815 
	C285.594604,74.715851 268.205536,86.146866 259.990479,106.350891 
	C258.352600,110.379143 255.995956,114.648209 258.272583,119.619827 
	C262.894684,129.713409 268.608765,139.638596 271.094727,150.282028 
	C273.411713,160.202179 279.425629,164.332016 287.459351,167.660309 
	C288.833649,168.229660 290.311066,168.550125 292.560791,169.087387 
M590.016907,226.477310 
	C595.856140,208.690491 597.210266,190.555817 595.167786,171.950882 
	C593.475403,156.535141 589.143250,141.986908 582.040405,128.374008 
	C568.299011,102.038055 547.958313,82.366577 520.840576,69.932869 
	C498.413025,59.649658 474.820770,55.934155 450.477570,59.279747 
	C433.648346,61.592663 417.528046,66.763000 402.715363,75.576843 
	C379.790314,89.217712 362.039551,107.715927 350.752930,131.851685 
	C339.545197,155.818756 335.454926,180.974655 339.869812,207.446762 
	C344.181213,233.298477 354.860931,255.979431 372.676208,274.980133 
	C393.957794,297.677704 420.140564,311.290710 451.288300,315.124908 
	C475.844543,318.147736 499.352448,314.690460 521.624573,304.103638 
	C555.144958,288.170105 577.881836,262.443024 590.016907,226.477310 
M259.179169,238.585144 
	C267.314331,218.463379 271.198730,197.798599 269.175568,175.918030 
	C267.251068,155.105179 260.984283,135.905624 249.829956,118.465065 
	C235.028992,95.322731 215.013168,77.938576 189.304535,67.754501 
	C168.461716,59.497921 146.768173,56.116096 124.429199,59.180496 
	C102.341240,62.210461 82.167175,70.239578 64.092384,83.491623 
	C46.255222,96.569420 32.766247,113.275162 23.596100,133.193375 
	C12.342196,157.637695 9.142488,183.332153 13.914078,209.973999 
	C19.915358,243.481674 36.756603,270.532043 63.780994,290.667786 
	C93.755142,313.001343 127.769150,320.582458 164.660080,313.950073 
	C189.867554,309.418213 211.604294,297.837555 230.175003,280.289429 
	C242.545319,268.600250 251.818283,254.705490 259.179169,238.585144 
M166.436432,53.997749 
	C187.143814,58.048145 205.951828,66.291199 222.829788,79.046951 
	C224.681198,80.446167 228.102020,81.267822 230.197540,80.568153 
	C236.891617,78.333099 243.304245,75.255104 249.825546,72.502594 
	C249.247803,71.991570 248.670059,71.480537 248.092316,70.969505 
	C249.033188,68.551949 249.359955,65.509140 251.047424,63.851700 
	C254.207748,60.747650 258.128693,58.407021 261.784851,55.821819 
	C265.491852,53.200661 268.649963,53.038986 271.431732,57.447475 
	C272.177185,58.628899 274.773254,59.546211 276.208954,59.219391 
	C280.553345,58.230453 284.813995,56.742031 288.955444,55.071774 
	C290.232422,54.556763 291.931671,52.787533 291.875275,51.671528 
	C291.648102,47.175930 293.351593,44.357426 298.118744,43.404396 
	C294.897156,37.995987 290.396667,36.013180 284.955261,36.046909 
	C240.693100,36.321281 196.428207,36.443436 152.171112,37.088734 
	C137.414352,37.303898 125.790222,45.918301 114.021996,53.663891 
	C117.585472,53.586525 121.006134,53.028667 124.449089,52.717140 
	C138.203629,51.472588 151.940674,51.114113 166.436432,53.997749 
M336.122772,60.768143 
	C336.994324,59.773594 337.887054,58.796711 338.733856,57.781506 
	C342.694092,53.033733 344.562225,52.759506 349.563110,56.366089 
	C352.117981,58.208641 354.528351,60.255486 357.118378,62.044479 
	C360.712463,64.527016 363.008728,67.431526 360.668762,72.610390 
	C366.337952,75.126709 371.781372,77.501526 377.187927,79.957520 
	C380.636536,81.524094 383.287506,80.577225 386.304565,78.363304 
	C409.142822,61.604652 434.580902,52.101582 463.127869,52.031708 
	C473.173492,52.007114 483.220795,52.672115 493.174530,53.019020 
	C493.100769,52.916348 492.842651,52.254757 492.358582,51.927437 
	C479.106934,42.968239 465.038635,36.088417 448.602234,36.055138 
	C406.798737,35.970493 364.994812,35.983490 323.191345,36.077808 
	C317.515747,36.090611 312.595367,38.107742 309.580780,43.624744 
	C316.970306,44.419479 316.864471,44.436077 318.098846,52.306629 
	C318.300049,53.589420 319.676270,55.216095 320.903687,55.716290 
	C325.649475,57.650326 330.554962,59.192654 336.122772,60.768143 
M314.825043,61.423756 
	C287.874847,58.431652 265.737762,66.613525 250.010437,89.484764 
	C243.385971,99.118286 243.458969,99.169365 251.155609,108.006927 
	C251.256073,108.122284 251.449203,108.156952 251.722366,108.288780 
	C260.585907,83.716049 277.928925,69.271004 304.165527,69.341095 
	C330.226501,69.410728 347.565094,83.797173 356.427765,108.643715 
	C358.297211,106.189598 360.187866,104.393333 361.180084,102.192085 
	C362.000916,100.371040 362.662262,97.599792 361.853882,96.056305 
	C352.002106,77.245102 336.606689,65.696793 314.825043,61.423756 
M202.545670,18.007345 
	C197.659882,21.136473 192.346603,23.785004 189.083099,29.501541 
	C219.646194,29.501541 249.589294,29.501541 279.877167,29.501541 
	C265.994202,11.275367 230.821274,2.180434 202.545670,18.007345 
M417.473114,29.895462 
	C418.096405,27.630758 417.801910,26.878304 415.195862,24.830250 
	C395.015717,8.971080 372.727936,5.643983 348.783783,14.337064 
	C340.762177,17.249357 333.586243,21.939571 327.172211,29.950430 
	C357.950165,29.950430 387.307831,29.950430 417.473114,29.895462 
M278.502472,171.010468 
	C277.662720,171.437836 276.126373,171.821075 276.096039,172.299744 
	C275.896729,175.445450 275.806641,178.635422 276.150024,181.759399 
	C276.283630,182.974915 277.383942,184.661194 278.467194,185.108887 
	C295.321960,192.074936 312.285675,192.131638 329.196869,185.306274 
	C330.344208,184.843216 331.709961,183.293762 331.806305,182.151077 
	C332.131653,178.292511 331.930267,174.389511 331.930267,170.189499 
	C327.388855,171.996201 323.678436,173.824158 319.767578,174.964859 
	C305.807922,179.036453 292.238312,177.672165 278.502472,171.010468 
M362.866882,84.712494 
	C364.748596,87.681274 366.630310,90.650055 368.727844,93.959343 
	C371.172455,91.302849 373.115448,89.191437 375.341003,86.772942 
	C369.974915,84.361237 365.327606,82.272583 360.680298,80.183922 
	C360.499481,80.474495 360.318634,80.765068 360.137817,81.055641 
	C360.919739,82.074776 361.701660,83.093910 362.866882,84.712494 
z"/>
<path fill="#D3E8FC" opacity="1.000000" stroke="none" 
	d="
M292.150818,169.036469 
	C290.311066,168.550125 288.833649,168.229660 287.459351,167.660309 
	C279.425629,164.332016 273.411713,160.202179 271.094727,150.282028 
	C268.608765,139.638596 262.894684,129.713409 258.272583,119.619827 
	C255.995956,114.648209 258.352600,110.379143 259.990479,106.350891 
	C268.205536,86.146866 285.594604,74.715851 307.417786,76.155815 
	C330.093384,77.652016 346.981628,94.238960 350.702026,115.721352 
	C350.901733,116.874489 350.336823,118.351898 349.702942,119.428108 
	C342.732086,131.263168 337.684235,143.822174 334.865051,157.293076 
	C334.559998,158.750732 333.358307,160.345871 332.113190,161.231216 
	C320.131744,169.750641 306.979156,172.684784 292.150818,169.036469 
M306.852997,117.140839 
	C305.535126,117.088577 304.208374,116.912537 302.900940,117.006134 
	C298.038971,117.354233 295.353302,122.383369 298.332031,126.269188 
	C299.713318,128.071121 302.652252,129.881058 304.665039,129.662369 
	C306.720612,129.439026 309.761597,126.952034 310.090485,125.059685 
	C310.494659,122.733986 308.536316,119.997726 306.852997,117.140839 
z"/>
<path fill="#D2E7FC" opacity="1.000000" stroke="none" 
	d="
M589.920044,226.862946 
	C577.881836,262.443024 555.144958,288.170105 521.624573,304.103638 
	C499.352448,314.690460 475.844543,318.147736 451.288300,315.124908 
	C420.140564,311.290710 393.957794,297.677704 372.676208,274.980133 
	C354.860931,255.979431 344.181213,233.298477 339.869812,207.446762 
	C335.454926,180.974655 339.545197,155.818756 350.752930,131.851685 
	C362.039551,107.715927 379.790314,89.217712 402.715363,75.576843 
	C417.528046,66.763000 433.648346,61.592663 450.477570,59.279747 
	C474.820770,55.934155 498.413025,59.649658 520.840576,69.932869 
	C547.958313,82.366577 568.299011,102.038055 582.040405,128.374008 
	C589.143250,141.986908 593.475403,156.535141 595.167786,171.950882 
	C597.210266,190.555817 595.856140,208.690491 589.920044,226.862946 
M589.789734,181.906403 
	C589.489685,178.443192 589.403076,174.945892 588.856445,171.522034 
	C583.617432,138.702423 568.897827,111.314590 542.326965,90.777351 
	C514.420105,69.207504 482.747467,61.017452 448.150604,66.351898 
	C417.664368,71.052536 392.244568,85.687263 372.602905,109.832947 
	C349.465851,138.275513 340.714294,170.952896 346.383911,206.801712 
	C351.851990,241.376221 369.634216,269.173737 398.829437,288.744019 
	C425.042603,306.315369 454.057953,312.918579 485.567383,308.154510 
	C509.966949,304.465393 531.340515,294.444153 549.418884,277.917999 
	C577.257446,252.469666 589.922607,220.275970 589.789734,181.906403 
z"/>
<path fill="#D2E7FC" opacity="1.000000" stroke="none" 
	d="
M259.027710,238.932190 
	C251.818283,254.705490 242.545319,268.600250 230.175003,280.289429 
	C211.604294,297.837555 189.867554,309.418213 164.660080,313.950073 
	C127.769150,320.582458 93.755142,313.001343 63.780994,290.667786 
	C36.756603,270.532043 19.915358,243.481674 13.914078,209.973999 
	C9.142488,183.332153 12.342196,157.637695 23.596100,133.193375 
	C32.766247,113.275162 46.255222,96.569420 64.092384,83.491623 
	C82.167175,70.239578 102.341240,62.210461 124.429199,59.180496 
	C146.768173,56.116096 168.461716,59.497921 189.304535,67.754501 
	C215.013168,77.938576 235.028992,95.322731 249.829956,118.465065 
	C260.984283,135.905624 267.251068,155.105179 269.175568,175.918030 
	C271.198730,197.798599 267.314331,218.463379 259.027710,238.932190 
M86.654930,296.872559 
	C147.306961,327.074738 219.961334,302.269287 250.046402,242.490677 
	C280.944916,181.095779 256.105560,107.478622 194.606140,77.385483 
	C134.225739,47.839897 61.593334,71.817001 31.086721,132.928741 
	C0.995156,193.209030 25.835615,266.968628 86.654930,296.872559 
z"/>
<path fill="#D3E8FC" opacity="1.000000" stroke="none" 
	d="
M166.007355,53.968010 
	C151.940674,51.114113 138.203629,51.472588 124.449089,52.717140 
	C121.006134,53.028667 117.585472,53.586525 114.021996,53.663891 
	C125.790222,45.918301 137.414352,37.303898 152.171112,37.088734 
	C196.428207,36.443436 240.693100,36.321281 284.955261,36.046909 
	C290.396667,36.013180 294.897156,37.995987 298.118744,43.404396 
	C293.351593,44.357426 291.648102,47.175930 291.875275,51.671528 
	C291.931671,52.787533 290.232422,54.556763 288.955444,55.071774 
	C284.813995,56.742031 280.553345,58.230453 276.208954,59.219391 
	C274.773254,59.546211 272.177185,58.628899 271.431732,57.447475 
	C268.649963,53.038986 265.491852,53.200661 261.784851,55.821819 
	C258.128693,58.407021 254.207748,60.747650 251.047424,63.851700 
	C249.359955,65.509140 249.033188,68.551949 248.092316,70.969505 
	C248.670059,71.480537 249.247803,71.991570 249.825546,72.502594 
	C243.304245,75.255104 236.891617,78.333099 230.197540,80.568153 
	C228.102020,81.267822 224.681198,80.446167 222.829788,79.046951 
	C205.951828,66.291199 187.143814,58.048145 166.007355,53.968010 
z"/>
<path fill="#D3E8FC" opacity="1.000000" stroke="none" 
	d="
M335.761841,60.824520 
	C330.554962,59.192654 325.649475,57.650326 320.903687,55.716290 
	C319.676270,55.216095 318.300049,53.589420 318.098846,52.306629 
	C316.864471,44.436077 316.970306,44.419479 309.580780,43.624744 
	C312.595367,38.107742 317.515747,36.090611 323.191345,36.077808 
	C364.994812,35.983490 406.798737,35.970493 448.602234,36.055138 
	C465.038635,36.088417 479.106934,42.968239 492.358582,51.927437 
	C492.842651,52.254757 493.100769,52.916348 493.174530,53.019020 
	C483.220795,52.672115 473.173492,52.007114 463.127869,52.031708 
	C434.580902,52.101582 409.142822,61.604652 386.304565,78.363304 
	C383.287506,80.577225 380.636536,81.524094 377.187927,79.957520 
	C371.781372,77.501526 366.337952,75.126709 360.668762,72.610390 
	C363.008728,67.431526 360.712463,64.527016 357.118378,62.044479 
	C354.528351,60.255486 352.117981,58.208641 349.563110,56.366089 
	C344.562225,52.759506 342.694092,53.033733 338.733856,57.781506 
	C337.887054,58.796711 336.994324,59.773594 335.761841,60.824520 
z"/>
<path fill="#D2E7FC" opacity="1.000000" stroke="none" 
	d="
M315.238708,61.576775 
	C336.606689,65.696793 352.002106,77.245102 361.853882,96.056305 
	C362.662262,97.599792 362.000916,100.371040 361.180084,102.192085 
	C360.187866,104.393333 358.297211,106.189598 356.427765,108.643715 
	C347.565094,83.797173 330.226501,69.410728 304.165527,69.341095 
	C277.928925,69.271004 260.585907,83.716049 251.722366,108.288780 
	C251.449203,108.156952 251.256073,108.122284 251.155609,108.006927 
	C243.458969,99.169365 243.385971,99.118286 250.010437,89.484764 
	C265.737762,66.613525 287.874847,58.431652 315.238708,61.576775 
z"/>
<path fill="#D2E7FC" opacity="1.000000" stroke="none" 
	d="
M202.834579,17.777790 
	C230.821274,2.180434 265.994202,11.275367 279.877167,29.501541 
	C249.589294,29.501541 219.646194,29.501541 189.083099,29.501541 
	C192.346603,23.785004 197.659882,21.136473 202.834579,17.777790 
z"/>
<path fill="#D2E7FC" opacity="1.000000" stroke="none" 
	d="
M417.069336,29.922947 
	C387.307831,29.950430 357.950165,29.950430 327.172211,29.950430 
	C333.586243,21.939571 340.762177,17.249357 348.783783,14.337064 
	C372.727936,5.643983 395.015717,8.971080 415.195862,24.830250 
	C417.801910,26.878304 418.096405,27.630758 417.069336,29.922947 
z"/>
<path fill="#D3E8FC" opacity="1.000000" stroke="none" 
	d="
M334.992401,221.009689 
	C324.960266,219.339127 314.978607,217.186569 304.882202,216.130005 
	C294.226227,215.014847 283.959656,218.029205 273.405334,221.012756 
	C272.998810,221.000000 272.969360,220.975143 272.969360,220.975143 
	C274.237030,211.520004 275.504730,202.064880 276.810242,192.327469 
	C281.643829,193.705612 286.537170,195.100800 291.371490,196.479141 
	C291.573700,196.858063 291.839050,197.135101 291.862579,197.431366 
	C292.622925,207.001755 292.619446,207.002335 302.060364,207.002106 
	C305.557068,207.002014 309.054657,206.949600 312.550201,207.012985 
	C316.302643,207.081039 318.348785,205.302475 317.920807,201.572571 
	C317.421997,197.224976 318.988220,195.150009 323.404266,194.602493 
	C326.104340,194.267731 328.687683,192.991302 331.109741,192.206985 
	C332.464264,201.845337 333.749786,210.992935 335.017639,220.570251 
	C335.000000,220.999969 334.992401,221.009689 334.992401,221.009689 
z"/>
<path fill="#D2E7FC" opacity="1.000000" stroke="none" 
	d="
M278.816589,171.226212 
	C292.238312,177.672165 305.807922,179.036453 319.767578,174.964859 
	C323.678436,173.824158 327.388855,171.996201 331.930267,170.189499 
	C331.930267,174.389511 332.131653,178.292511 331.806305,182.151077 
	C331.709961,183.293762 330.344208,184.843216 329.196869,185.306274 
	C312.285675,192.131638 295.321960,192.074936 278.467194,185.108887 
	C277.383942,184.661194 276.283630,182.974915 276.150024,181.759399 
	C275.806641,178.635422 275.896729,175.445450 276.096039,172.299744 
	C276.126373,171.821075 277.662720,171.437836 278.816589,171.226212 
z"/>
<path fill="#D2E7FC" opacity="1.000000" stroke="none" 
	d="
M362.675232,84.412766 
	C361.701660,83.093910 360.919739,82.074776 360.137817,81.055641 
	C360.318634,80.765068 360.499481,80.474495 360.680298,80.183922 
	C365.327606,82.272583 369.974915,84.361237 375.341003,86.772942 
	C373.115448,89.191437 371.172455,91.302849 368.727844,93.959343 
	C366.630310,90.650055 364.748596,87.681274 362.675232,84.412766 
z"/>
<path fill="#D2E7FC" opacity="1.000000" stroke="none" 
	d="
M245.997040,81.997772 
	C243.922028,85.844635 241.847015,89.691505 239.638962,93.785004 
	C237.499710,91.417793 235.662766,89.385132 233.515961,87.009583 
	C237.321503,85.409874 241.297302,83.738594 245.636551,82.033661 
	C246.000000,82.000000 245.997025,81.997765 245.997040,81.997772 
z"/>
<path fill="#D3E8FC" opacity="1.000000" stroke="none" 
	d="
M273.011230,221.014664 
	C272.906708,221.049469 272.789734,221.069611 272.821045,221.032440 
	C272.969360,220.975143 272.998810,221.000000 273.011230,221.014664 
z"/>
<path fill="#D3E8FC" opacity="1.000000" stroke="none" 
	d="
M335.005005,220.995972 
	C335.131134,221.138580 335.252289,221.285202 335.373444,221.431824 
	C335.282379,221.385117 335.191345,221.338394 335.046326,221.150696 
	C334.992401,221.009689 335.000000,220.999969 335.005005,220.995972 
z"/>
<path fill="#D2E7FC" opacity="1.000000" stroke="none" 
	d="
M246.001038,82.001335 
	C246.097122,81.969185 246.192154,81.935707 246.142090,81.949997 
	C245.997025,81.997765 246.000000,82.000000 246.001038,82.001335 
z"/>
<path fill="#A0CFFA" opacity="1.000000" stroke="none" 
	d="
M307.226105,117.289886 
	C308.536316,119.997726 310.494659,122.733986 310.090485,125.059685 
	C309.761597,126.952034 306.720612,129.439026 304.665039,129.662369 
	C302.652252,129.881058 299.713318,128.071121 298.332031,126.269188 
	C295.353302,122.383369 298.038971,117.354233 302.900940,117.006134 
	C304.208374,116.912537 305.535126,117.088577 307.226105,117.289886 
z"/>
<path fill="#A0CFFA" opacity="1.000000" stroke="none" 
	d="
M589.855347,182.366638 
	C589.922607,220.275970 577.257446,252.469666 549.418884,277.917999 
	C531.340515,294.444153 509.966949,304.465393 485.567383,308.154510 
	C454.057953,312.918579 425.042603,306.315369 398.829437,288.744019 
	C369.634216,269.173737 351.851990,241.376221 346.383911,206.801712 
	C340.714294,170.952896 349.465851,138.275513 372.602905,109.832947 
	C392.244568,85.687263 417.664368,71.052536 448.150604,66.351898 
	C482.747467,61.017452 514.420105,69.207504 542.326965,90.777351 
	C568.897827,111.314590 583.617432,138.702423 588.856445,171.522034 
	C589.403076,174.945892 589.489685,178.443192 589.855347,182.366638 
M494.180054,299.817322 
	C520.784180,292.907501 543.125671,279.279175 559.458984,256.957214 
	C582.748962,225.127747 589.283447,189.952240 577.432861,152.214569 
	C567.594849,120.886002 547.332153,98.041000 517.822021,83.299850 
	C495.244354,72.021683 471.370758,69.223129 446.996796,73.393173 
	C420.539917,77.919586 398.163391,90.581818 380.250153,111.073326 
	C357.512390,137.083755 348.651123,167.598450 352.367432,201.202789 
	C355.764679,231.921906 370.101440,257.669647 394.605286,277.132446 
	C423.867523,300.374695 456.864502,307.833069 494.180054,299.817322 
z"/>
<path fill="#A0CFFA" opacity="1.000000" stroke="none" 
	d="
M86.323219,296.701294 
	C25.835615,266.968628 0.995156,193.209030 31.086721,132.928741 
	C61.593334,71.817001 134.225739,47.839897 194.606140,77.385483 
	C256.105560,107.478622 280.944916,181.095779 250.046402,242.490677 
	C219.961334,302.269287 147.306961,327.074738 86.323219,296.701294 
M243.522324,134.016693 
	C235.650909,119.151665 225.421402,106.232201 211.982361,95.996712 
	C185.821045,76.071648 156.396042,68.572670 123.867310,72.944908 
	C100.948936,76.025406 80.708687,85.392952 63.840805,100.902214 
	C34.882378,127.528206 21.784601,160.630951 25.925840,200.156448 
	C28.657038,226.224014 39.545525,248.570740 57.242546,267.508026 
	C67.743172,278.744629 80.438683,287.259613 94.673653,293.371887 
	C115.328300,302.240662 136.846542,305.326050 158.943573,301.683838 
	C179.403366,298.311493 197.895035,290.120087 214.078918,276.697174 
	C238.451218,256.482758 252.490845,230.642181 255.785034,199.445953 
	C258.161438,176.941177 254.561218,155.028641 243.522324,134.016693 
z"/>
<path fill="#D3E8FC" opacity="1.000000" stroke="none" 
	d="
M493.771179,299.892761 
	C456.864502,307.833069 423.867523,300.374695 394.605286,277.132446 
	C370.101440,257.669647 355.764679,231.921906 352.367432,201.202789 
	C348.651123,167.598450 357.512390,137.083755 380.250153,111.073326 
	C398.163391,90.581818 420.539917,77.919586 446.996796,73.393173 
	C471.370758,69.223129 495.244354,72.021683 517.822021,83.299850 
	C547.332153,98.041000 567.594849,120.886002 577.432861,152.214569 
	C589.283447,189.952240 582.748962,225.127747 559.458984,256.957214 
	C543.125671,279.279175 520.784180,292.907501 493.771179,299.892761 
M431.818481,273.809906 
	C443.686859,276.418365 455.503845,277.703796 467.786346,276.156921 
	C494.015381,272.853516 515.625977,261.077759 532.159912,240.947220 
	C551.379089,217.547302 558.389954,190.349014 552.948853,160.352951 
	C548.584045,136.290497 536.535583,116.413048 517.444214,101.467133 
	C493.618103,82.814598 466.383575,75.888557 436.436066,82.058098 
	C409.967010,87.511032 388.837769,101.584129 374.131531,124.158737 
	C357.695740,149.388199 353.116608,177.016785 361.947418,206.072998 
	C372.574707,241.040268 395.896759,263.447937 431.818481,273.809906 
z"/>
<path fill="#D3E8FC" opacity="1.000000" stroke="none" 
	d="
M243.694550,134.346603 
	C254.561218,155.028641 258.161438,176.941177 255.785034,199.445953 
	C252.490845,230.642181 238.451218,256.482758 214.078918,276.697174 
	C197.895035,290.120087 179.403366,298.311493 158.943573,301.683838 
	C136.846542,305.326050 115.328300,302.240662 94.673653,293.371887 
	C80.438683,287.259613 67.743172,278.744629 57.242546,267.508026 
	C39.545525,248.570740 28.657038,226.224014 25.925840,200.156448 
	C21.784601,160.630951 34.882378,127.528206 63.840805,100.902214 
	C80.708687,85.392952 100.948936,76.025406 123.867310,72.944908 
	C156.396042,68.572670 185.821045,76.071648 211.982361,95.996712 
	C225.421402,106.232201 235.650909,119.151665 243.694550,134.346603 
M77.013710,242.433884 
	C82.106110,247.201172 86.807899,252.490662 92.359886,256.643524 
	C114.064148,272.878204 138.575089,279.785431 165.448334,275.760712 
	C191.031082,271.929260 212.537659,260.071442 228.786850,239.601669 
	C245.263718,218.845078 252.347488,194.848038 249.666718,168.762085 
	C246.935318,142.183441 235.244095,119.616753 214.075989,102.565201 
	C189.244370,82.562576 161.069504,75.877747 130.047882,82.638374 
	C106.605942,87.747147 87.452469,100.356171 73.133461,119.570801 
	C55.371395,143.405655 50.124374,170.265121 55.926292,199.300201 
	C59.112659,215.246017 66.364624,229.298584 77.013710,242.433884 
z"/>
<path fill="#A0CFFA" opacity="1.000000" stroke="none" 
	d="
M431.431458,273.663879 
	C395.896759,263.447937 372.574707,241.040268 361.947418,206.072998 
	C353.116608,177.016785 357.695740,149.388199 374.131531,124.158737 
	C388.837769,101.584129 409.967010,87.511032 436.436066,82.058098 
	C466.383575,75.888557 493.618103,82.814598 517.444214,101.467133 
	C536.535583,116.413048 548.584045,136.290497 552.948853,160.352951 
	C558.389954,190.349014 551.379089,217.547302 532.159912,240.947220 
	C515.625977,261.077759 494.015381,272.853516 467.786346,276.156921 
	C455.503845,277.703796 443.686859,276.418365 431.431458,273.663879 
M455.788147,269.932129 
	C458.523987,269.642639 461.259796,269.353149 464.877869,269.063446 
	C475.919403,268.217346 486.505829,265.801514 496.840179,260.006134 
	C500.593414,257.719360 504.346680,255.432556 508.711304,252.852142 
	C511.162842,250.902786 513.614380,248.953430 516.663574,246.723022 
	C518.507263,244.562103 520.350952,242.401169 522.868225,240.089203 
	C525.922974,236.393036 528.977722,232.696869 532.571167,228.599243 
	C533.391663,226.780960 534.212158,224.962662 535.643555,222.796280 
	C536.499939,221.386826 537.505371,220.045990 538.190674,218.557739 
	C550.441040,191.953735 550.767151,165.195541 538.297485,138.675949 
	C523.058899,106.267639 486.651764,83.177925 446.335815,87.845711 
	C425.576935,90.249176 407.642853,98.399605 392.740967,112.838783 
	C376.372559,128.698959 367.387299,148.291580 365.059082,171.908310 
	C365.064911,177.194138 364.731445,182.510529 365.204071,187.754288 
	C365.486664,190.889679 367.031616,193.911285 367.758453,197.650452 
	C369.109467,210.772278 374.896698,221.949371 383.026367,232.802948 
	C384.544159,234.235184 386.061951,235.667404 387.690460,237.766815 
	C388.115051,238.525253 388.539673,239.283691 389.266754,240.630173 
	C391.854523,243.079269 394.442261,245.528366 397.598785,248.328049 
	C408.598846,257.441498 420.746307,264.238037 435.424103,267.451874 
	C437.645996,267.925354 439.867920,268.398865 442.930511,268.956238 
	C446.922180,269.249512 450.913818,269.542786 455.788147,269.932129 
z"/>
<path fill="#A0CFFA" opacity="1.000000" stroke="none" 
	d="
M76.784485,242.162033 
	C66.364624,229.298584 59.112659,215.246017 55.926292,199.300201 
	C50.124374,170.265121 55.371395,143.405655 73.133461,119.570801 
	C87.452469,100.356171 106.605942,87.747147 130.047882,82.638374 
	C161.069504,75.877747 189.244370,82.562576 214.075989,102.565201 
	C235.244095,119.616753 246.935318,142.183441 249.666718,168.762085 
	C252.347488,194.848038 245.263718,218.845078 228.786850,239.601669 
	C212.537659,260.071442 191.031082,271.929260 165.448334,275.760712 
	C138.575089,279.785431 114.064148,272.878204 92.359886,256.643524 
	C86.807899,252.490662 82.106110,247.201172 76.784485,242.162033 
M150.830170,269.980560 
	C153.553116,269.665253 156.276077,269.349945 159.899918,269.081970 
	C168.322861,267.066467 176.745789,265.050964 185.865891,263.023346 
	C187.586609,262.053925 189.307327,261.084534 191.780273,260.076324 
	C198.201508,256.061066 204.622742,252.045792 211.639389,247.740112 
	C214.113632,245.186432 216.587875,242.632751 219.643951,239.738983 
	C222.771332,235.492798 225.898712,231.246613 229.565063,226.585175 
	C232.345398,221.010742 235.125748,215.436310 238.002213,209.101654 
	C238.296448,208.150772 238.581146,207.196823 238.886307,206.249451 
	C251.347641,167.564697 236.579086,124.414291 202.461700,102.379219 
	C172.657837,83.130104 141.276428,81.723312 109.501312,97.389038 
	C96.696655,103.701973 85.866394,112.792358 77.441864,125.381287 
	C76.572212,127.192207 75.702560,129.003128 74.251137,131.180649 
	C70.537079,139.429077 66.823013,147.677505 63.002583,156.722824 
	C62.659405,158.807297 62.316227,160.891754 61.624462,163.724197 
	C59.214264,176.246521 60.273228,188.635880 63.081558,201.702667 
	C64.032463,204.135040 64.983360,206.567429 66.010361,209.743179 
	C70.302307,217.552002 74.594246,225.360809 79.215576,233.740707 
	C81.158997,236.148972 83.102425,238.557236 85.580170,241.349640 
	C88.674950,243.952148 91.769730,246.554672 95.063438,249.793503 
	C98.375275,252.195862 101.687111,254.598221 105.596230,257.338043 
	C119.294403,265.358398 134.054794,269.637054 150.830170,269.980560 
z"/>
<path fill="#FFFFFF" opacity="1.000000" stroke="none" 
	d="
M382.886841,232.160797 
	C374.896698,221.949371 369.109467,210.772278 367.977478,196.923737 
	C369.861542,195.802658 371.523071,195.084991 373.192169,195.067001 
	C383.160095,194.959625 393.130310,195.076309 403.098694,194.992325 
	C410.222168,194.932327 416.694763,189.440445 417.899719,182.657288 
	C419.102203,175.887787 414.437378,167.666763 408.229462,165.184265 
	C406.088959,164.328293 403.806610,163.236710 402.244720,161.619507 
	C391.712280,150.714310 375.906677,153.497269 369.642273,167.325577 
	C368.929779,168.898392 366.670319,169.770401 365.128174,170.967377 
	C367.387299,148.291580 376.372559,128.698959 392.740967,112.838783 
	C407.642853,98.399605 425.576935,90.249176 446.335815,87.845711 
	C486.651764,83.177925 523.058899,106.267639 538.297485,138.675949 
	C550.767151,165.195541 550.441040,191.953735 538.190674,218.557739 
	C537.505371,220.045990 536.499939,221.386826 535.208313,222.644623 
	C519.983337,206.956024 505.127777,191.480850 490.453522,175.835617 
	C487.086731,172.246017 484.628357,172.504059 481.455322,175.979980 
	C477.190948,180.651520 472.557892,184.986862 468.074677,189.458084 
	C465.183319,192.341690 462.276855,195.210159 459.178253,198.282639 
	C458.081085,196.123444 457.332703,194.650650 456.153595,192.330200 
	C454.990356,194.903671 454.250763,196.539871 453.204773,198.853867 
	C451.035065,192.529144 449.109497,186.916153 447.183929,181.303177 
	C446.684814,181.366516 446.185669,181.429871 445.686523,181.493225 
	C443.925049,186.899551 442.163574,192.305878 440.263092,198.138809 
	C437.925812,196.398148 435.729919,195.169785 434.061523,193.434357 
	C430.736298,189.975525 428.001129,190.417557 424.766388,193.657928 
	C419.721008,198.712158 414.403687,203.498657 409.121674,208.310867 
	C407.424072,209.857468 405.474152,211.127121 403.679382,212.493286 
	C402.671051,211.274582 401.786530,210.205521 400.347351,208.466064 
	C399.482483,211.035324 398.920502,212.856995 398.255371,214.640182 
	C397.513611,216.628723 397.168030,219.066269 395.791199,220.460022 
	C391.716766,224.584534 387.219025,228.290894 382.886841,232.160797 
M469.069214,156.099823 
	C472.205292,158.058990 475.228241,161.449051 478.498749,161.707581 
	C488.103607,162.466843 497.812164,162.176041 507.469574,161.911880 
	C513.325684,161.751694 518.421570,156.418655 518.980896,150.681763 
	C519.633728,143.984955 516.423462,139.135727 510.018494,136.966888 
	C508.990540,136.618820 507.799957,136.078888 507.196350,135.253418 
	C500.889832,126.629044 484.979980,125.852516 478.726532,137.750153 
	C477.904419,139.314301 476.307404,140.714859 474.735748,141.596588 
	C469.572479,144.493240 467.302185,149.428360 469.069214,156.099823 
z"/>
<path fill="#FFFFFF" opacity="1.000000" stroke="none" 
	d="
M532.032471,229.000732 
	C528.977722,232.696869 525.922974,236.393036 522.064697,240.083008 
	C512.072998,239.871201 512.123413,239.853943 509.126282,231.092545 
	C506.961761,224.765106 504.640656,218.491226 502.389374,212.193466 
	C501.910706,212.181427 501.432037,212.169373 500.953369,212.157318 
	C498.289917,221.194931 495.626465,230.232529 492.776642,239.902527 
	C491.242218,236.146805 490.003876,233.115768 488.352600,229.074066 
	C487.174957,231.247345 486.248077,232.192307 486.192871,233.185715 
	C485.867401,239.039780 482.677277,240.174423 477.265381,240.128998 
	C447.833496,239.881943 418.398315,240.030014 388.964264,240.042114 
	C388.539673,239.283691 388.115051,238.525253 387.989685,237.302170 
	C402.020477,224.137451 415.752106,211.437363 429.162201,199.034653 
	C434.267731,204.261398 438.834991,208.937119 444.028168,214.253586 
	C441.336395,216.726883 437.994019,219.291656 435.378876,222.457214 
	C434.373779,223.673859 435.025635,226.259323 434.922485,228.221085 
	C436.680267,227.919434 438.521027,227.841660 440.164886,227.232574 
	C441.158417,226.864456 441.848206,225.673645 442.671509,224.849579 
	C455.844788,211.664246 469.014313,198.475128 482.196411,185.298615 
	C483.342712,184.152802 484.571167,183.089172 486.302460,181.486618 
	C501.710968,197.496277 516.871704,213.248505 532.032471,229.000732 
z"/>
<path fill="#D6E9FC" opacity="1.000000" stroke="none" 
	d="
M532.301819,228.799988 
	C516.871704,213.248505 501.710968,197.496277 486.302460,181.486618 
	C484.571167,183.089172 483.342712,184.152802 482.196411,185.298615 
	C469.014313,198.475128 455.844788,211.664246 442.671509,224.849579 
	C441.848206,225.673645 441.158417,226.864456 440.164886,227.232574 
	C438.521027,227.841660 436.680267,227.919434 434.922485,228.221085 
	C435.025635,226.259323 434.373779,223.673859 435.378876,222.457214 
	C437.994019,219.291656 441.336395,216.726883 444.028168,214.253586 
	C438.834991,208.937119 434.267731,204.261398 429.162201,199.034653 
	C415.752106,211.437363 402.020477,224.137451 387.934326,236.968582 
	C386.061951,235.667404 384.544159,234.235184 382.956604,232.481873 
	C387.219025,228.290894 391.716766,224.584534 395.791199,220.460022 
	C397.168030,219.066269 397.513611,216.628723 398.255371,214.640182 
	C398.920502,212.856995 399.482483,211.035324 400.347351,208.466064 
	C401.786530,210.205521 402.671051,211.274582 403.679382,212.493286 
	C405.474152,211.127121 407.424072,209.857468 409.121674,208.310867 
	C414.403687,203.498657 419.721008,198.712158 424.766388,193.657928 
	C428.001129,190.417557 430.736298,189.975525 434.061523,193.434357 
	C435.729919,195.169785 437.925812,196.398148 440.263092,198.138809 
	C442.163574,192.305878 443.925049,186.899551 445.686523,181.493225 
	C446.185669,181.429871 446.684814,181.366516 447.183929,181.303177 
	C449.109497,186.916153 451.035065,192.529144 453.204773,198.853867 
	C454.250763,196.539871 454.990356,194.903671 456.153595,192.330200 
	C457.332703,194.650650 458.081085,196.123444 459.178253,198.282639 
	C462.276855,195.210159 465.183319,192.341690 468.074677,189.458084 
	C472.557892,184.986862 477.190948,180.651520 481.455322,175.979980 
	C484.628357,172.504059 487.086731,172.246017 490.453522,175.835617 
	C505.127777,191.480850 519.983337,206.956024 534.902832,222.818665 
	C534.212158,224.962662 533.391663,226.780960 532.301819,228.799988 
z"/>
<path fill="#EDF6FE" opacity="1.000000" stroke="none" 
	d="
M365.093628,171.437836 
	C366.670319,169.770401 368.929779,168.898392 369.642273,167.325577 
	C375.906677,153.497269 391.712280,150.714310 402.244720,161.619507 
	C403.806610,163.236710 406.088959,164.328293 408.229462,165.184265 
	C414.437378,167.666763 419.102203,175.887787 417.899719,182.657288 
	C416.694763,189.440445 410.222168,194.932327 403.098694,194.992325 
	C393.130310,195.076309 383.160095,194.959625 373.192169,195.067001 
	C371.523071,195.084991 369.861542,195.802658 368.102844,196.590530 
	C367.031616,193.911285 365.486664,190.889679 365.204071,187.754288 
	C364.731445,182.510529 365.064911,177.194138 365.093628,171.437836 
z"/>
<path fill="#D6E9FC" opacity="1.000000" stroke="none" 
	d="
M389.115509,240.336151 
	C418.398315,240.030014 447.833496,239.881943 477.265381,240.128998 
	C482.677277,240.174423 485.867401,239.039780 486.192871,233.185715 
	C486.248077,232.192307 487.174957,231.247345 488.352600,229.074066 
	C490.003876,233.115768 491.242218,236.146805 492.776642,239.902527 
	C495.626465,230.232529 498.289917,221.194931 500.953369,212.157318 
	C501.432037,212.169373 501.910706,212.181427 502.389374,212.193466 
	C504.640656,218.491226 506.961761,224.765106 509.126282,231.092545 
	C512.123413,239.853943 512.072998,239.871201 521.727905,240.158539 
	C520.350952,242.401169 518.507263,244.562103 515.889343,246.859711 
	C477.645691,246.995773 440.176239,246.980865 402.706909,247.036346 
	C400.814148,247.039154 398.922302,247.649826 397.030029,247.977478 
	C394.442261,245.528366 391.854523,243.079269 389.115509,240.336151 
z"/>
<path fill="#FEFFFF" opacity="1.000000" stroke="none" 
	d="
M397.314392,248.152771 
	C398.922302,247.649826 400.814148,247.039154 402.706909,247.036346 
	C440.176239,246.980865 477.645691,246.995773 515.590515,247.000244 
	C513.614380,248.953430 511.162842,250.902786 507.928986,252.951294 
	C494.038208,253.042343 480.929626,253.070145 467.821381,253.014877 
	C457.226166,252.970215 447.599640,256.019867 438.986969,262.100830 
	C437.350311,263.256348 436.295898,265.236481 434.972839,266.836151 
	C420.746307,264.238037 408.598846,257.441498 397.314392,248.152771 
z"/>
<path fill="#D6E9FC" opacity="1.000000" stroke="none" 
	d="
M435.198486,267.144012 
	C436.295898,265.236481 437.350311,263.256348 438.986969,262.100830 
	C447.599640,256.019867 457.226166,252.970215 467.821381,253.014877 
	C480.929626,253.070145 494.038208,253.042343 507.623291,253.098114 
	C504.346680,255.432556 500.593414,257.719360 495.999084,260.005066 
	C492.010345,260.006561 488.829071,259.714478 485.721527,260.069000 
	C477.659302,260.988831 469.702362,262.367859 463.995636,269.063629 
	C461.259796,269.353149 458.523987,269.642639 455.418030,269.559570 
	C457.488007,266.307709 459.928070,263.428345 462.368134,260.549011 
	C458.598969,260.660156 455.129700,261.159515 452.099945,262.589813 
	C448.562897,264.259644 445.409607,266.742340 442.089813,268.872375 
	C439.867920,268.398865 437.645996,267.925354 435.198486,267.144012 
z"/>
<path fill="#FEFFFF" opacity="1.000000" stroke="none" 
	d="
M464.436768,269.063538 
	C469.702362,262.367859 477.659302,260.988831 485.721527,260.069000 
	C488.829071,259.714478 492.010345,260.006561 495.635529,260.005981 
	C486.505829,265.801514 475.919403,268.217346 464.436768,269.063538 
z"/>
<path fill="#FEFFFF" opacity="1.000000" stroke="none" 
	d="
M442.510162,268.914307 
	C445.409607,266.742340 448.562897,264.259644 452.099945,262.589813 
	C455.129700,261.159515 458.598969,260.660156 462.368134,260.549011 
	C459.928070,263.428345 457.488007,266.307709 454.976715,269.511536 
	C450.913818,269.542786 446.922180,269.249512 442.510162,268.914307 
z"/>
<path fill="#FEFFFF" opacity="1.000000" stroke="none" 
	d="
M77.999596,125.000000 
	C85.866394,112.792358 96.696655,103.701973 109.501312,97.389038 
	C141.276428,81.723312 172.657837,83.130104 202.461700,102.379219 
	C236.579086,124.414291 251.347641,167.564697 238.886307,206.249451 
	C238.581146,207.196823 238.296448,208.150772 237.684570,209.270752 
	C235.648743,204.575974 233.930557,199.712082 232.212372,194.848175 
	C231.721054,194.875870 231.229736,194.903549 230.738419,194.931229 
	C229.302856,198.885941 227.867279,202.840637 226.210205,207.405548 
	C224.901443,205.102890 224.118164,203.724762 222.947113,201.664398 
	C221.599884,204.358414 220.569138,206.419586 219.396057,208.765350 
	C214.308334,204.137726 209.568436,199.826477 204.936340,195.613281 
	C212.463638,182.581528 213.065414,180.479111 211.992065,171.548706 
	C210.038879,155.297531 188.268799,145.137512 174.498032,154.019577 
	C165.236267,159.993347 161.097260,168.447266 162.002243,179.399017 
	C162.307083,183.088089 161.934647,186.401215 157.469635,187.896881 
	C153.696289,184.484390 149.821625,181.108597 146.091324,177.580200 
	C138.118210,170.038681 130.255295,162.380508 122.265999,154.856400 
	C120.257011,152.964401 118.135284,150.584717 115.045723,153.461853 
	C111.401291,156.855713 107.628128,160.112656 104.018753,163.542587 
	C95.459419,171.676392 86.974236,179.888214 78.424530,188.032242 
	C77.668472,188.752396 76.659409,189.206955 75.738831,189.803696 
	C74.893425,187.701981 74.203423,185.986588 73.513420,184.271210 
	C73.049110,184.287979 72.584801,184.304764 72.120499,184.321533 
	C71.385170,187.107941 70.652863,189.895126 69.913780,192.680542 
	C68.901489,196.495697 67.367935,199.881638 63.051533,200.959335 
	C60.273228,188.635880 59.214264,176.246521 62.270157,163.359619 
	C72.076683,162.996582 81.252045,163.324570 90.394714,162.917740 
	C102.072861,162.398117 107.973190,149.325806 102.514778,141.037598 
	C97.366959,133.221039 88.432335,128.576172 79.489876,125.025421 
	C79.057869,124.853882 78.499252,125.001175 77.999596,125.000000 
M163.923111,152.844406 
	C165.446350,152.133224 167.539200,151.780090 168.291031,150.584000 
	C168.785950,149.796646 167.648209,147.552872 166.710175,146.389832 
	C165.059540,144.343323 163.244370,142.202942 161.023788,140.928009 
	C159.700455,140.168228 157.472824,140.983475 155.651733,141.090683 
	C155.932983,142.717499 155.706009,144.739655 156.600433,145.889526 
	C158.511047,148.345825 161.002426,150.350403 163.923111,152.844406 
M206.013580,149.601074 
	C206.560150,153.543472 208.794800,153.963287 211.531952,151.831772 
	C213.872757,150.008911 216.036469,147.832550 217.804962,145.459641 
	C218.569733,144.433472 218.143204,142.519424 218.257812,141.008698 
	C216.731934,140.903534 214.626938,140.110550 213.785828,140.818726 
	C210.957474,143.200027 208.579224,146.115921 206.013580,149.601074 
M183.991257,139.352722 
	C183.992172,140.183868 183.692871,141.189331 184.054047,141.811279 
	C184.909119,143.283676 186.077850,144.573944 187.119781,145.937836 
	C188.086243,144.498215 189.653915,143.150024 189.889801,141.599258 
	C190.334579,138.675385 190.328323,135.584763 189.866150,132.665298 
	C189.656891,131.343338 187.908936,130.264938 186.859024,129.076035 
	C185.909256,130.198532 184.451904,131.193329 184.129791,132.473740 
	C183.657486,134.351120 183.997620,136.432877 183.991257,139.352722 
M144.272675,168.513367 
	C146.975830,169.221222 149.647812,170.148117 152.396027,170.539505 
	C153.666870,170.720474 155.620895,170.254150 156.289429,169.355453 
	C156.967255,168.444229 156.780334,165.515091 156.390747,165.397614 
	C152.590485,164.251526 148.688248,163.362366 144.756821,162.830139 
	C144.236862,162.759766 143.270493,165.048111 142.770721,166.344238 
	C142.622375,166.728958 143.362076,167.456116 144.272675,168.513367 
M217.060516,168.254501 
	C219.469437,170.991959 227.600937,171.359024 229.480499,168.554611 
	C230.164612,167.533859 230.273239,165.230194 229.580170,164.347031 
	C227.231750,161.354462 218.503433,163.648361 217.060516,168.254501 
M215.006607,189.454681 
	C216.275482,190.770981 217.316986,192.662399 218.864410,193.274185 
	C221.443024,194.293655 224.731674,198.789566 227.005508,193.568039 
	C229.128616,188.692642 223.779800,188.735458 221.310822,187.410965 
	C219.403717,186.387863 216.258987,184.181656 215.006607,189.454681 
z"/>
<path fill="#FFFFFF" opacity="1.000000" stroke="none" 
	d="
M229.026093,227.000427 
	C225.898712,231.246613 222.771332,235.492798 218.883148,239.884308 
	C206.380737,239.471420 195.179321,241.311874 185.804611,248.894394 
	C182.752609,251.362930 181.394348,250.600906 178.798569,248.495544 
	C173.574234,244.258240 168.291428,239.722015 162.278381,236.939087 
	C156.936234,234.466660 151.781311,232.993195 151.395172,226.001587 
	C151.362274,225.405685 150.495544,224.855820 149.546768,223.725250 
	C148.252640,227.219421 147.198380,230.065918 145.560623,234.487869 
	C139.586700,224.958023 139.299286,214.587021 134.667130,205.189346 
	C133.509094,206.875809 132.636154,207.694687 132.312317,208.691895 
	C130.160568,215.317825 127.832527,221.909775 126.174194,228.663147 
	C125.306198,232.197922 123.704224,233.111084 120.336273,233.087036 
	C106.520477,232.988373 92.703026,233.121689 78.886185,233.169632 
	C74.594246,225.360809 70.302307,217.552002 66.278625,209.229584 
	C74.619461,201.049255 82.727280,193.419174 90.751389,185.702042 
	C95.566063,181.071564 95.507477,181.010361 100.073799,185.537521 
	C100.546761,186.006424 101.029648,186.466187 101.485748,186.951065 
	C104.212257,189.849518 106.953468,189.838577 109.576050,186.877167 
	C111.337006,184.888702 112.956161,182.774643 115.230286,179.993347 
	C118.640549,183.687836 121.212730,186.488464 123.801086,189.274063 
	C125.921463,191.556015 128.113220,191.628128 130.204575,189.288376 
	C132.848053,186.330902 135.410080,183.300629 138.246170,180.025879 
	C143.779144,185.066345 148.336960,189.125320 152.789642,193.296494 
	C159.579590,199.657135 166.245468,206.151001 173.080841,212.461761 
	C174.805328,214.053925 176.865555,216.405945 179.448425,213.770340 
	C181.954514,211.213120 180.020462,209.371384 178.077316,207.587158 
	C173.092834,203.010315 168.156662,198.380859 162.789154,193.389252 
	C167.865967,188.711502 172.558945,184.387405 177.393677,179.932709 
	C186.459305,188.278839 194.969223,196.174072 203.547852,203.993927 
	C212.004395,211.702469 220.530502,219.334717 229.026093,227.000427 
z"/>
<path fill="#D6E9FC" opacity="1.000000" stroke="none" 
	d="
M229.295578,226.792801 
	C220.530502,219.334717 212.004395,211.702469 203.547852,203.993927 
	C194.969223,196.174072 186.459305,188.278839 177.393677,179.932709 
	C172.558945,184.387405 167.865967,188.711502 162.789154,193.389252 
	C168.156662,198.380859 173.092834,203.010315 178.077316,207.587158 
	C180.020462,209.371384 181.954514,211.213120 179.448425,213.770340 
	C176.865555,216.405945 174.805328,214.053925 173.080841,212.461761 
	C166.245468,206.151001 159.579590,199.657135 152.789642,193.296494 
	C148.336960,189.125320 143.779144,185.066345 138.246170,180.025879 
	C135.410080,183.300629 132.848053,186.330902 130.204575,189.288376 
	C128.113220,191.628128 125.921463,191.556015 123.801086,189.274063 
	C121.212730,186.488464 118.640549,183.687836 115.230286,179.993347 
	C112.956161,182.774643 111.337006,184.888702 109.576050,186.877167 
	C106.953468,189.838577 104.212257,189.849518 101.485748,186.951065 
	C101.029648,186.466187 100.546761,186.006424 100.073799,185.537521 
	C95.507477,181.010361 95.566063,181.071564 90.751389,185.702042 
	C82.727280,193.419174 74.619461,201.049255 66.240585,208.857910 
	C64.983360,206.567429 64.032463,204.135040 63.066544,201.330994 
	C67.367935,199.881638 68.901489,196.495697 69.913780,192.680542 
	C70.652863,189.895126 71.385170,187.107941 72.120499,184.321533 
	C72.584801,184.304764 73.049110,184.287979 73.513420,184.271210 
	C74.203423,185.986588 74.893425,187.701981 75.738831,189.803696 
	C76.659409,189.206955 77.668472,188.752396 78.424530,188.032242 
	C86.974236,179.888214 95.459419,171.676392 104.018753,163.542587 
	C107.628128,160.112656 111.401291,156.855713 115.045723,153.461853 
	C118.135284,150.584717 120.257011,152.964401 122.265999,154.856400 
	C130.255295,162.380508 138.118210,170.038681 146.091324,177.580200 
	C149.821625,181.108597 153.696289,184.484390 157.469635,187.896881 
	C161.934647,186.401215 162.307083,183.088089 162.002243,179.399017 
	C161.097260,168.447266 165.236267,159.993347 174.498032,154.019577 
	C188.268799,145.137512 210.038879,155.297531 211.992065,171.548706 
	C213.065414,180.479111 212.463638,182.581528 204.936340,195.613281 
	C209.568436,199.826477 214.308334,204.137726 219.396057,208.765350 
	C220.569138,206.419586 221.599884,204.358414 222.947113,201.664398 
	C224.118164,203.724762 224.901443,205.102890 226.210205,207.405548 
	C227.867279,202.840637 229.302856,198.885941 230.738419,194.931229 
	C231.229736,194.903549 231.721054,194.875870 232.212372,194.848175 
	C233.930557,199.712082 235.648743,204.575974 237.636505,209.650879 
	C235.125748,215.436310 232.345398,221.010742 229.295578,226.792801 
M201.142517,188.369293 
	C207.344666,180.414490 207.273605,172.003998 200.935547,163.873535 
	C196.603638,158.316574 187.003021,156.249130 179.543289,159.266815 
	C172.704269,162.033401 168.470184,169.097137 169.469498,176.511246 
	C170.690491,175.778473 172.001236,175.316010 172.859390,174.420059 
	C176.356964,170.768478 179.252640,171.561356 182.534821,174.929062 
	C186.807892,179.313507 191.390091,183.413864 196.043228,187.398270 
	C197.168747,188.362015 199.094513,188.391220 201.142517,188.369293 
M116.956482,161.519958 
	C111.629494,166.387329 106.302513,171.254700 100.946198,176.148880 
	C102.723106,178.180878 103.906837,179.534561 105.248474,181.068802 
	C106.857658,179.548004 108.073997,178.447296 109.236130,177.292038 
	C115.388390,171.176254 115.636192,171.174911 121.930794,177.467270 
	C122.166168,177.702560 122.401299,177.938080 122.636795,178.173233 
	C127.595505,183.124283 127.606987,183.135071 132.268204,178.181107 
	C132.915115,177.493576 133.383392,176.637985 134.246552,175.419479 
	C128.589935,170.605469 123.097801,165.931427 116.956482,161.519958 
z"/>
<path fill="#D6E9FC" opacity="1.000000" stroke="none" 
	d="
M79.050880,233.455170 
	C92.703026,233.121689 106.520477,232.988373 120.336273,233.087036 
	C123.704224,233.111084 125.306198,232.197922 126.174194,228.663147 
	C127.832527,221.909775 130.160568,215.317825 132.312317,208.691895 
	C132.636154,207.694687 133.509094,206.875809 134.667130,205.189346 
	C139.299286,214.587021 139.586700,224.958023 145.560623,234.487869 
	C147.198380,230.065918 148.252640,227.219421 149.546768,223.725250 
	C150.495544,224.855820 151.362274,225.405685 151.395172,226.001587 
	C151.781311,232.993195 156.936234,234.466660 162.278381,236.939087 
	C168.291428,239.722015 173.574234,244.258240 178.798569,248.495544 
	C181.394348,250.600906 182.752609,251.362930 185.804611,248.894394 
	C195.179321,241.311874 206.380737,239.471420 218.592224,240.054352 
	C216.587875,242.632751 214.113632,245.186432 211.073334,247.587128 
	C203.402267,246.207581 197.396301,249.104721 191.669373,252.678558 
	C186.904739,255.651871 186.946259,256.326843 191.028061,260.115143 
	C189.307327,261.084534 187.586609,262.053925 185.194290,262.888428 
	C180.924728,259.566589 177.058090,256.632050 173.780991,253.143661 
	C165.165894,243.973099 154.563477,239.975784 142.178009,240.004532 
	C124.865425,240.044724 107.552559,239.988159 90.240150,240.056747 
	C88.507538,240.063599 86.777222,240.648758 85.045837,240.965515 
	C83.102425,238.557236 81.158997,236.148972 79.050880,233.455170 
z"/>
<path fill="#FEFFFF" opacity="1.000000" stroke="none" 
	d="
M85.313004,241.157578 
	C86.777222,240.648758 88.507538,240.063599 90.240150,240.056747 
	C107.552559,239.988159 124.865425,240.044724 142.178009,240.004532 
	C154.563477,239.975784 165.165894,243.973099 173.780991,253.143661 
	C177.058090,256.632050 180.924728,259.566589 184.845703,262.894501 
	C176.745789,265.050964 168.322861,267.066467 159.317413,268.749298 
	C149.938980,258.260834 140.028152,249.732010 125.818108,249.117599 
	C115.520058,248.672333 105.183754,249.112076 94.864502,249.157196 
	C91.769730,246.554672 88.674950,243.952148 85.313004,241.157578 
z"/>
<path fill="#FEFFFF" opacity="1.000000" stroke="none" 
	d="
M63.108955,155.925934 
	C66.823013,147.677505 70.537079,139.429077 74.951836,131.064789 
	C80.112091,131.138260 83.465950,132.954147 85.760452,136.991150 
	C86.521149,138.329529 88.316460,139.536636 89.850449,139.893341 
	C94.516640,140.978394 98.059723,144.665131 97.629250,148.588318 
	C97.175507,152.723694 93.318039,155.968811 88.472267,156.000641 
	C80.018356,156.056137 71.563446,155.959061 63.108955,155.925934 
z"/>
<path fill="#D6E9FC" opacity="1.000000" stroke="none" 
	d="
M63.055771,156.324371 
	C71.563446,155.959061 80.018356,156.056137 88.472267,156.000641 
	C93.318039,155.968811 97.175507,152.723694 97.629250,148.588318 
	C98.059723,144.665131 94.516640,140.978394 89.850449,139.893341 
	C88.316460,139.536636 86.521149,138.329529 85.760452,136.991150 
	C83.465950,132.954147 80.112091,131.138260 75.242722,130.881485 
	C75.702560,129.003128 76.572212,127.192207 77.720734,125.190643 
	C78.499252,125.001175 79.057869,124.853882 79.489876,125.025421 
	C88.432335,128.576172 97.366959,133.221039 102.514778,141.037598 
	C107.973190,149.325806 102.072861,162.398117 90.394714,162.917740 
	C81.252045,163.324570 72.076683,162.996582 62.444450,162.985641 
	C62.316227,160.891754 62.659405,158.807297 63.055771,156.324371 
z"/>
<path fill="#D6E9FC" opacity="1.000000" stroke="none" 
	d="
M94.963974,249.475342 
	C105.183754,249.112076 115.520058,248.672333 125.818108,249.117599 
	C140.028152,249.732010 149.938980,258.260834 158.866974,268.725647 
	C156.276077,269.349945 153.553116,269.665253 150.369476,269.616272 
	C148.515167,267.649078 147.311432,265.815979 145.695297,264.482849 
	C138.432541,258.491852 130.327667,254.918869 120.599632,255.950272 
	C115.420502,256.499359 110.200500,256.662994 104.998947,257.000610 
	C101.687111,254.598221 98.375275,252.195862 94.963974,249.475342 
z"/>
<path fill="#FEFFFF" opacity="1.000000" stroke="none" 
	d="
M105.297592,257.169312 
	C110.200500,256.662994 115.420502,256.499359 120.599632,255.950272 
	C130.327667,254.918869 138.432541,258.491852 145.695297,264.482849 
	C147.311432,265.815979 148.515167,267.649078 149.927917,269.590393 
	C134.054794,269.637054 119.294403,265.358398 105.297592,257.169312 
z"/>
<path fill="#FEFFFF" opacity="1.000000" stroke="none" 
	d="
M191.404175,260.095734 
	C186.946259,256.326843 186.904739,255.651871 191.669373,252.678558 
	C197.396301,249.104721 203.402267,246.207581 210.775604,247.732330 
	C204.622742,252.045792 198.201508,256.061066 191.404175,260.095734 
z"/>
<path fill="#D6E9FC" opacity="1.000000" stroke="none" 
	d="
M468.908722,155.744278 
	C467.302185,149.428360 469.572479,144.493240 474.735748,141.596588 
	C476.307404,140.714859 477.904419,139.314301 478.726532,137.750153 
	C484.979980,125.852516 500.889832,126.629044 507.196350,135.253418 
	C507.799957,136.078888 508.990540,136.618820 510.018494,136.966888 
	C516.423462,139.135727 519.633728,143.984955 518.980896,150.681763 
	C518.421570,156.418655 513.325684,161.751694 507.469574,161.911880 
	C497.812164,162.176041 488.103607,162.466843 478.498749,161.707581 
	C475.228241,161.449051 472.205292,158.058990 468.908722,155.744278 
M489.648071,136.693771 
	C484.893372,138.732407 483.545624,142.785568 483.663696,147.642700 
	C482.503143,147.792328 481.598969,147.689713 480.927155,148.036819 
	C478.946808,149.060059 475.512665,150.159073 475.429688,151.412628 
	C475.198822,154.899231 478.395294,155.036224 481.186798,155.023773 
	C489.163727,154.988174 497.142426,155.099136 505.117249,154.964447 
	C508.463623,154.907944 511.432556,153.792038 511.967712,149.852722 
	C512.543091,145.616989 509.857208,144.020325 506.328644,142.988754 
	C504.888763,142.567780 503.016693,141.890900 502.381378,140.750839 
	C499.562286,135.692047 495.257172,135.390717 489.648071,136.693771 
z"/>
<path fill="#D6E9FC" opacity="1.000000" stroke="none" 
	d="
M163.589508,152.692215 
	C161.002426,150.350403 158.511047,148.345825 156.600433,145.889526 
	C155.706009,144.739655 155.932983,142.717499 155.651733,141.090683 
	C157.472824,140.983475 159.700455,140.168228 161.023788,140.928009 
	C163.244370,142.202942 165.059540,144.343323 166.710175,146.389832 
	C167.648209,147.552872 168.785950,149.796646 168.291031,150.584000 
	C167.539200,151.780090 165.446350,152.133224 163.589508,152.692215 
z"/>
<path fill="#D6E9FC" opacity="1.000000" stroke="none" 
	d="
M206.021179,149.214172 
	C208.579224,146.115921 210.957474,143.200027 213.785828,140.818726 
	C214.626938,140.110550 216.731934,140.903534 218.257812,141.008698 
	C218.143204,142.519424 218.569733,144.433472 217.804962,145.459641 
	C216.036469,147.832550 213.872757,150.008911 211.531952,151.831772 
	C208.794800,153.963287 206.560150,153.543472 206.021179,149.214172 
z"/>
<path fill="#D3E8FC" opacity="1.000000" stroke="none" 
	d="
M183.991425,138.890137 
	C183.997620,136.432877 183.657486,134.351120 184.129791,132.473740 
	C184.451904,131.193329 185.909256,130.198532 186.859024,129.076035 
	C187.908936,130.264938 189.656891,131.343338 189.866150,132.665298 
	C190.328323,135.584763 190.334579,138.675385 189.889801,141.599258 
	C189.653915,143.150024 188.086243,144.498215 187.119781,145.937836 
	C186.077850,144.573944 184.909119,143.283676 184.054047,141.811279 
	C183.692871,141.189331 183.992172,140.183868 183.991425,138.890137 
z"/>
<path fill="#D6E9FC" opacity="1.000000" stroke="none" 
	d="
M143.983765,168.269867 
	C143.362076,167.456116 142.622375,166.728958 142.770721,166.344238 
	C143.270493,165.048111 144.236862,162.759766 144.756821,162.830139 
	C148.688248,163.362366 152.590485,164.251526 156.390747,165.397614 
	C156.780334,165.515091 156.967255,168.444229 156.289429,169.355453 
	C155.620895,170.254150 153.666870,170.720474 152.396027,170.539505 
	C149.647812,170.148117 146.975830,169.221222 143.983765,168.269867 
z"/>
<path fill="#D6E9FC" opacity="1.000000" stroke="none" 
	d="
M217.040741,167.851395 
	C218.503433,163.648361 227.231750,161.354462 229.580170,164.347031 
	C230.273239,165.230194 230.164612,167.533859 229.480499,168.554611 
	C227.600937,171.359024 219.469437,170.991959 217.040741,167.851395 
z"/>
<path fill="#D6E9FC" opacity="1.000000" stroke="none" 
	d="
M215.021927,189.067108 
	C216.258987,184.181656 219.403717,186.387863 221.310822,187.410965 
	C223.779800,188.735458 229.128616,188.692642 227.005508,193.568039 
	C224.731674,198.789566 221.443024,194.293655 218.864410,193.274185 
	C217.316986,192.662399 216.275482,190.770981 215.021927,189.067108 
z"/>
<path fill="#FEFFFF" opacity="1.000000" stroke="none" 
	d="
M200.897400,188.609741 
	C199.094513,188.391220 197.168747,188.362015 196.043228,187.398270 
	C191.390091,183.413864 186.807892,179.313507 182.534821,174.929062 
	C179.252640,171.561356 176.356964,170.768478 172.859390,174.420059 
	C172.001236,175.316010 170.690491,175.778473 169.469498,176.511246 
	C168.470184,169.097137 172.704269,162.033401 179.543289,159.266815 
	C187.003021,156.249130 196.603638,158.316574 200.935547,163.873535 
	C207.273605,172.003998 207.344666,180.414490 200.897400,188.609741 
z"/>
<path fill="#FEFFFF" opacity="1.000000" stroke="none" 
	d="
M117.281075,161.388672 
	C123.097801,165.931427 128.589935,170.605469 134.246552,175.419479 
	C133.383392,176.637985 132.915115,177.493576 132.268204,178.181107 
	C127.606987,183.135071 127.595505,183.124283 122.636795,178.173233 
	C122.401299,177.938080 122.166168,177.702560 121.930794,177.467270 
	C115.636192,171.174911 115.388390,171.176254 109.236130,177.292038 
	C108.073997,178.447296 106.857658,179.548004 105.248474,181.068802 
	C103.906837,179.534561 102.723106,178.180878 100.946198,176.148880 
	C106.302513,171.254700 111.629494,166.387329 117.281075,161.388672 
z"/>
<path fill="#FFFFFF" opacity="1.000000" stroke="none" 
	d="
M490.010773,136.518799 
	C495.257172,135.390717 499.562286,135.692047 502.381378,140.750839 
	C503.016693,141.890900 504.888763,142.567780 506.328644,142.988754 
	C509.857208,144.020325 512.543091,145.616989 511.967712,149.852722 
	C511.432556,153.792038 508.463623,154.907944 505.117249,154.964447 
	C497.142426,155.099136 489.163727,154.988174 481.186798,155.023773 
	C478.395294,155.036224 475.198822,154.899231 475.429688,151.412628 
	C475.512665,150.159073 478.946808,149.060059 480.927155,148.036819 
	C481.598969,147.689713 482.503143,147.792328 483.663696,147.642700 
	C483.545624,142.785568 484.893372,138.732407 490.010773,136.518799 
z"/>
</svg>